PathFileType  4	(X/Y/Z) C:\Users\antoi\Documents\MyRepositories\mobilecap\ResultsAnalysis
DataRate	CameraRate	NumFrames	NumMarkers	Units	OrigDataRate	OrigDataStartFrame	OrigNumFrames
100.0	100.0	5	55	mm	100.0	188	501
Frame#	Time	r_knee			r_shank_antsup			r_ankle			r_calc			r_5meta			r_toe			L_knee			L_shank_antsup			L_ankle			L_calc			L_5meta			L_toe			r_mknee			r_mankle			L_mknee			L_mankle			r_sh2			r_sh3			r_sh4			L_sh2			L_sh3			r_thigh1			r_thigh2			r_thigh3			r_thigh4			r_thigh5			L_thigh1			L_thigh2			L_thigh3			L_thigh4			r.ASIS			r.PSIS			L.ASIS			L.PSIS			C7			R_Shoulder			L_Shoulder			R_Sternum			L_Sternum			R_humerus			R_elbow_med			R_elbow_lat			R_forearm			R_wrist_radius			R_wrist_ulna			L_humerus			L_elbow_med			L_elbow_lat			L_forearm			L_wrist_radius			L_wrist_ulna			R_HJC			L_HJC			R_HJC_reg			L_HJC_reg			
		X1	Y1	Z1	X2	Y2	Z2	X3	Y3	Z3	X4	Y4	Z4	X5	Y5	Z5	X6	Y6	Z6	X7	Y7	Z7	X8	Y8	Z8	X9	Y9	Z9	X10	Y10	Z10	X11	Y11	Z11	X12	Y12	Z12	X13	Y13	Z13	X14	Y14	Z14	X15	Y15	Z15	X16	Y16	Z16	X17	Y17	Z17	X18	Y18	Z18	X19	Y19	Z19	X20	Y20	Z20	X21	Y21	Z21	X22	Y22	Z22	X23	Y23	Z23	X24	Y24	Z24	X25	Y25	Z25	X26	Y26	Z26	X27	Y27	Z27	X28	Y28	Z28	X29	Y29	Z29	X30	Y30	Z30	X31	Y31	Z31	X32	Y32	Z32	X33	Y33	Z33	X34	Y34	Z34	X35	Y35	Z35	X36	Y36	Z36	X37	Y37	Z37	X38	Y38	Z38	X39	Y39	Z39	X40	Y40	Z40	X41	Y41	Z41	X42	Y42	Z42	X43	Y43	Z43	X44	Y44	Z44	X45	Y45	Z45	X46	Y46	Z46	X47	Y47	Z47	X48	Y48	Z48	X49	Y49	Z49	X50	Y50	Z50	X51	Y51	Z51	X52	Y52	Z52	X53	Y53	Z53	X54	Y54	Z54	X55	Y55	Z55	

188	1.87000000	-258.55013	475.18015	-419.19526	-234.89778	421.84292	-412.17790	-256.95937	86.03588	-387.56567	-308.74333	53.25697	-429.60952	-147.59525	42.78689	-354.09152	-109.43311	61.26505	-406.95748	-232.28364	473.16332	-773.43405	-202.69454	392.95782	-770.32034	-251.87065	94.64417	-816.50966	-308.75401	50.28884	-779.54919	-147.74332	44.91170	-846.22180	-101.31416	59.51618	-789.95359	-251.51702	448.33047	-546.52572	-240.70696	96.51015	-464.90550	-239.34512	447.50457	-646.57861	-240.83602	97.06512	-736.01271	-242.88250	311.03637	-388.66907	-306.91680	433.32749	-392.96053	-323.60240	315.30483	-378.04928	-280.21701	416.40910	-813.55266	-286.18025	295.61321	-836.69934	-165.28726	721.04806	-395.48648	-175.01649	608.39600	-404.70217	-238.42535	588.68260	-395.83152	-278.92212	726.97154	-407.38418	-283.40898	610.70127	-419.41825	-143.17584	748.93554	-790.87530	-148.01529	608.18509	-771.92221	-254.76791	748.02985	-806.57114	-261.52236	613.07412	-778.78612	-108.94531	920.18763	-477.87422	-317.10618	942.63413	-562.95209	-100.72317	926.36669	-703.20594	-311.84299	945.66122	-642.66319	-267.11450	1384.91229	-594.18110	-218.45313	1358.66394	-449.97165	-223.70900	1358.19752	-731.95375	-138.94095	1330.14933	-568.60702	-139.27406	1329.40173	-608.44574	-193.97122	1249.38919	-384.30865	-262.65981	1040.23001	-392.73990	-242.45170	1056.37287	-335.49988	-185.91307	994.80398	-294.28938	-146.05775	856.83294	-259.80676	-181.88567	854.99282	-245.03756	-217.85852	1259.89483	-807.71392	-251.18614	1038.37474	-796.45306	-241.48619	1063.37063	-855.26803	-183.56139	983.49760	-896.79130	-137.45392	863.46328	-916.19096	-174.85414	858.25701	-932.33706	-187.77000	829.81336	-492.42791	-178.79634	837.99321	-699.57976	-177.41626	847.57631	-516.23363	-167.61481	853.21358	-664.67747	
189	1.88000000	-258.48206	475.15845	-419.20058	-234.86132	421.87114	-412.17603	-256.95298	86.05475	-387.58410	-308.72267	53.28031	-429.68409	-147.57531	42.79598	-354.04334	-109.44418	61.21217	-406.97636	-232.25252	473.09339	-773.30856	-202.66999	392.95408	-770.36619	-251.78320	94.87458	-816.97641	-308.76456	50.27127	-779.57365	-147.75324	44.89083	-846.23924	-101.31757	59.50652	-789.97632	-251.50719	448.33204	-546.51801	-240.72582	96.53754	-464.98847	-239.35718	447.49288	-646.56850	-240.83782	97.06289	-736.00420	-242.90351	311.02789	-388.61092	-306.91932	433.32650	-392.97826	-323.40116	315.54843	-377.91992	-280.16848	416.39602	-813.54953	-286.13183	295.62051	-836.71359	-165.31162	721.58784	-395.58963	-175.00947	608.38177	-404.64989	-238.31562	588.70459	-395.87125	-278.79314	727.00793	-407.33880	-283.35048	610.69337	-419.41611	-143.10764	748.92926	-790.89502	-147.98111	608.16195	-771.93705	-254.65592	748.00139	-806.54958	-261.47375	613.06041	-778.80366	-108.78750	920.08617	-477.93229	-316.99111	942.64356	-562.91944	-100.59477	926.33583	-703.25579	-311.74986	945.63299	-642.68790	-266.94375	1384.88406	-594.25502	-218.31926	1358.65941	-449.98297	-223.55818	1358.17807	-732.03311	-138.83585	1330.09935	-568.57520	-139.13198	1329.42544	-608.41913	-193.86420	1249.35822	-384.28499	-262.51394	1040.11997	-393.14133	-242.37792	1056.36292	-335.52544	-185.85513	994.75709	-294.35577	-145.97322	856.77077	-259.86052	-181.80834	854.92792	-245.17851	-217.72192	1259.84152	-807.63607	-251.06844	1038.25760	-796.35471	-241.36260	1063.32062	-855.24906	-183.44963	983.43216	-896.79056	-137.37579	863.38051	-916.11049	-174.73535	858.20138	-932.26780	-187.64818	829.74532	-492.48267	-178.71857	837.97269	-699.63457	-177.31054	847.59845	-516.23132	-167.55693	853.16171	-664.67614	
190	1.89000000	-258.44532	475.14597	-419.19614	-234.87522	421.81749	-412.20696	-256.95555	86.06441	-387.59308	-308.71140	53.30046	-429.70639	-147.58861	42.81106	-353.98403	-109.44951	61.17281	-406.96582	-232.22058	473.06380	-773.22540	-202.63629	392.96401	-770.36194	-251.74907	94.91283	-817.04574	-308.77190	50.25135	-779.60189	-147.76636	44.89903	-846.26085	-101.31738	59.50568	-789.97930	-251.51053	448.32987	-546.50362	-240.73014	96.53500	-464.96163	-239.27903	447.42115	-646.60494	-240.84004	97.06347	-735.99768	-242.92311	311.03738	-388.59292	-306.87303	433.33611	-392.92778	-323.30597	315.61974	-377.89779	-280.10878	416.40605	-813.56606	-286.07293	295.64705	-836.74289	-165.32298	721.87525	-395.58717	-174.95209	608.31943	-404.57347	-238.22460	588.67222	-395.90363	-278.63120	727.04121	-407.27495	-283.32608	610.63384	-419.43159	-143.08675	748.92318	-790.89363	-147.93263	608.16157	-771.94186	-254.52267	748.00600	-806.53041	-261.42903	613.05784	-778.81663	-108.67440	920.07413	-477.94997	-316.89824	942.64953	-562.91675	-100.49349	926.30636	-703.23020	-311.60467	945.55862	-642.67725	-266.77537	1384.84932	-594.32505	-218.17338	1358.67590	-449.97500	-223.41232	1358.17372	-732.09973	-138.68267	1330.06025	-568.52245	-138.97695	1329.43758	-608.41181	-193.75224	1249.32693	-384.29823	-262.44567	1040.05220	-393.31765	-242.31024	1056.30856	-335.54089	-185.78902	994.68009	-294.45145	-145.90160	856.73490	-259.95800	-181.74230	854.86990	-245.25965	-217.58086	1259.79778	-807.57533	-250.91516	1038.17767	-796.21385	-241.21882	1063.28019	-855.24243	-183.33367	983.40785	-896.79034	-137.31142	863.32799	-916.06678	-174.62665	858.16280	-932.22173	-187.53015	829.73695	-492.45934	-178.60143	837.92871	-699.61270	-177.28243	847.69845	-516.21456	-167.43236	853.11154	-664.62922	
191	1.90000000	-258.40841	475.17388	-419.20903	-234.86779	421.77020	-412.21850	-256.97897	86.02785	-387.59436	-308.72456	53.28520	-429.64865	-147.62076	42.81573	-353.98495	-109.46198	61.17180	-406.96809	-232.17459	473.08634	-773.22975	-202.58436	392.96808	-770.33597	-251.78308	94.79656	-816.81291	-308.72993	50.26891	-779.59956	-147.77432	44.93328	-846.27953	-101.31305	59.50982	-789.96761	-251.50982	448.33509	-546.50184	-240.73225	96.55576	-464.94272	-239.10347	447.31246	-646.63958	-240.83496	97.06769	-735.99925	-242.89350	311.05885	-388.61034	-306.74598	433.37540	-392.76896	-323.27829	315.60614	-377.90891	-280.06874	416.40069	-813.53156	-286.03781	295.66408	-836.76318	-165.29317	721.81355	-395.51117	-174.83117	608.22404	-404.50659	-238.20523	588.62456	-395.93274	-278.50214	727.04679	-407.25670	-283.25108	610.62091	-419.39294	-143.05782	748.91612	-790.88249	-147.87590	608.17472	-771.95069	-254.42159	748.03648	-806.52246	-261.37920	613.07406	-778.82365	-108.54635	920.07958	-477.93213	-316.78350	942.64116	-562.91271	-100.39148	926.28279	-703.16886	-311.43026	945.51343	-642.65601	-266.64813	1384.81426	-594.32585	-217.99550	1358.69489	-449.94007	-223.27414	1358.16606	-732.10994	-138.50443	1330.05226	-568.48883	-138.82415	1329.39828	-608.45921	-193.62183	1249.31661	-384.29714	-262.41134	1039.89150	-393.26699	-242.25740	1056.26108	-335.56476	-185.71489	994.62633	-294.52586	-145.85677	856.70276	-260.07804	-181.68005	854.79704	-245.30142	-217.45430	1259.78844	-807.55530	-250.73893	1038.15171	-796.05398	-241.07796	1063.26397	-855.26243	-183.22447	983.41948	-896.78396	-137.25331	863.31910	-916.05713	-174.53789	858.14326	-932.19283	-187.40121	829.73812	-492.41402	-178.45872	837.89513	-699.56815	-177.22284	847.74423	-516.21001	-167.26190	853.08869	-664.58989	
192	1.91000000	-258.34684	475.19103	-419.20695	-234.80901	421.75322	-412.19574	-256.96396	86.00861	-387.58053	-308.73817	53.28767	-429.58151	-147.63497	42.76767	-354.05753	-109.47606	61.18034	-406.98663	-232.11311	473.13623	-773.25946	-202.51164	392.95953	-770.33059	-251.81302	94.74641	-816.68584	-308.67574	50.29883	-779.50467	-147.76954	44.97032	-846.27737	-101.30835	59.51166	-789.94179	-251.49094	448.34474	-546.51158	-240.73921	96.63453	-465.01601	-238.96924	447.23145	-646.61540	-240.82619	97.07324	-735.99860	-242.83620	311.06642	-388.65079	-306.60941	433.42361	-392.60462	-323.05831	315.77698	-377.75582	-280.02506	416.42255	-813.48506	-286.00661	295.70591	-836.76612	-165.24735	721.72846	-395.47585	-174.73449	608.17739	-404.48496	-238.16671	588.60633	-395.90394	-278.44081	726.99754	-407.31581	-283.14229	610.67033	-419.33089	-143.02370	748.90804	-790.88263	-147.81822	608.19843	-771.94804	-254.35441	748.09369	-806.52475	-261.30098	613.14063	-778.83761	-108.39446	920.06258	-477.89327	-316.60049	942.63317	-562.86193	-100.27829	926.28357	-703.14150	-311.28507	945.53012	-642.58617	-266.54709	1384.81892	-594.25583	-217.81561	1358.71120	-449.87803	-223.13972	1358.16488	-732.07728	-138.35220	1330.06288	-568.46993	-138.63493	1329.33876	-608.49989	-193.48428	1249.28401	-384.26696	-262.34606	1039.76300	-393.27340	-242.20179	1056.24018	-335.61387	-185.64009	994.60419	-294.56353	-145.80409	856.67030	-260.14702	-181.60776	854.73482	-245.35246	-217.33931	1259.80252	-807.53705	-250.57457	1038.16567	-795.93921	-240.96606	1063.27058	-855.26809	-183.12667	983.43691	-896.76071	-137.19331	863.33007	-916.03723	-174.45107	858.16038	-932.18304	-187.24433	829.72421	-492.38110	-178.33210	837.90162	-699.53573	-177.04401	847.70352	-516.16371	-167.15050	853.09558	-664.55340	
